<svg viewBox="-50 -50 519.36458 519.36458" version="1.1" id="svg1" xmlns="http://www.w3.org/2000/svg" xmlns:svg="http://www.w3.org/2000/svg" xmlns:rdf="http://www.w3.org/1999/02/22-rdf-syntax-ns#" xmlns:cc="http://creativecommons.org/ns#" xmlns:dc="http://purl.org/dc/elements/1.1/" style="view-transition-name: site-brand-logo;" class="logo">
  <defs id="defs1"></defs>
  <circle style="opacity: 1; fill-opacity: 1; stroke-width: 20; stroke-linejoin: round; stroke-opacity: 1; paint-order: markers stroke; fill: black; stroke: currentcolor;" id="path44" cx="209.682" cy="209.682" r="204.275"></circle>
  <path id="path40" style="stroke: none; stroke-width: 0.651; stroke-linejoin: round; stroke-opacity: 1; paint-order: markers stroke; fill: currentcolor; fill-opacity: 0.5;" d="M 307.076 166.34 C 276.065 165.802 240.028 181.824 209.682 209.682 C 152.564 262.118 90.839 287.577 49.302 209.701 C 49.31 251.975 65.67 290.428 92.405 319.074 C 121.68 350.443 163.392 370.055 209.684 370.055 C 298.26 370.055 370.065 298.25 370.065 209.674 C 370.065 209.672 370.066 209.672 370.065 209.672 C 357.886 180.176 334.437 166.812 307.076 166.338 L 307.076 166.34 Z"></path>
  <path id="path41" style="fill-opacity: 1; stroke: none; stroke-width: 21.024; stroke-linejoin: miter; stroke-miterlimit: 11.6; stroke-dasharray: none; stroke-opacity: 1; paint-order: markers stroke; fill: currentcolor;" d="M 112.289 166.33 C 84.929 166.804 61.48 180.167 49.301 209.663 C 49.301 209.663 49.301 209.663 49.301 209.679 C 49.301 251.965 65.664 290.428 92.405 319.082 C 121.68 350.451 163.392 370.063 209.684 370.062 C 298.254 370.062 370.054 298.266 370.065 209.698 C 328.527 287.574 266.8 262.115 209.682 209.679 C 179.337 181.821 143.301 165.799 112.289 166.337 L 112.289 166.33 Z"></path>
</svg>